<svg width="90" height="80" viewBox="0 0 90 80" fill="none" xmlns="http://www.w3.org/2000/svg">
<g clip-path="url(#clip0)">
<path d="M75.3482 30H57.4903L41.0685 1.25938C40.8495 0.87673 40.5333 0.558734 40.1519 0.337582C39.7705 0.11643 39.3375 -2.76448e-05 38.8966 4.92238e-09L28.6622 4.92238e-09C27.0013 4.92238e-09 25.8028 1.58906 26.2591 3.18594L33.92 30H17.8481L11.0981 21C10.6263 20.3703 9.88408 20 9.09814 20H2.84971C1.22314 20 0.0293921 21.5281 0.424705 23.1063L5.34814 40L0.424705 56.8937C0.0293921 58.4719 1.22314 60 2.84971 60H9.09814C9.88564 60 10.6263 59.6297 11.0981 59L17.8481 50H33.92L26.2591 76.8125C25.8028 78.4094 27.0013 80 28.6622 80H38.8966C39.7935 80 40.6216 79.5188 41.0669 78.7406L57.4903 50H75.3482C80.8716 50 90.3482 45.5234 90.3482 40C90.3482 34.4766 80.8716 30 75.3482 30Z" fill="#A6C9F2"/>
</g>
<defs>
<clipPath id="clip0">
<rect x="0.348145" width="90" height="80" fill="white"/>
</clipPath>
</defs>
</svg>
