<svg width="133" height="87" viewBox="0 0 133 87" fill="none" xmlns="http://www.w3.org/2000/svg">
<path d="M24 29L44.7846 65H3.21539L24 29Z" fill="#0B4309"/>
<path d="M24 18L41.3205 48H6.67949L24 18Z" fill="#0B4309"/>
<path d="M24 7L38.7224 32.5H9.27757L24 7Z" fill="#0B4309"/>
<path d="M24 29L44.7846 65H3.21539L24 29Z" fill="#0B4309"/>
<path d="M24 18L41.3205 48H6.67949L24 18Z" fill="#0B4309"/>
<path d="M24 7L38.7224 32.5H9.27757L24 7Z" fill="#0B4309"/>
<path d="M109 26L129.785 62H88.2154L109 26Z" fill="#0B4309"/>
<path d="M109 15L126.321 45H91.6795L109 15Z" fill="#0B4309"/>
<path d="M109 4L123.722 29.5H94.2776L109 4Z" fill="#0B4309"/>
<path d="M109 26L129.785 62H88.2154L109 26Z" fill="#0B4309"/>
<path d="M109 15L126.321 45H91.6795L109 15Z" fill="#0B4309"/>
<path d="M109 4L123.722 29.5H94.2776L109 4Z" fill="#0B4309"/>
<path d="M68 22L88.7846 58H47.2154L68 22Z" fill="#115110"/>
<path d="M68 11L85.3205 41H50.6795L68 11Z" fill="#115110"/>
<path d="M68 0L82.7224 25.5H53.2776L68 0Z" fill="#115110"/>
<path d="M68 22L88.7846 58H47.2154L68 22Z" fill="#115110"/>
<path d="M68 11L85.3205 41H50.6795L68 11Z" fill="#115110"/>
<path d="M68 0L82.7224 25.5H53.2776L68 0Z" fill="#115110"/>
<path d="M46 39L66.7846 75H25.2154L46 39Z" fill="#026700"/>
<path d="M46 28L63.3205 58H28.6795L46 28Z" fill="#026700"/>
<path d="M46 17L60.7224 42.5H31.2776L46 17Z" fill="#026700"/>
<path d="M46 39L66.7846 75H25.2154L46 39Z" fill="#026700"/>
<path d="M46 28L63.3205 58H28.6795L46 28Z" fill="#026700"/>
<path d="M46 17L60.7224 42.5H31.2776L46 17Z" fill="#026700"/>
<path d="M92 39L112.785 75H71.2154L92 39Z" fill="#0D8D0B"/>
<path d="M92 28L109.321 58H74.6795L92 28Z" fill="#0D8D0B"/>
<path d="M92 17L106.722 42.5H77.2776L92 17Z" fill="#0D8D0B"/>
<path d="M92 39L112.785 75H71.2154L92 39Z" fill="#0D8D0B"/>
<path d="M92 28L109.321 58H74.6795L92 28Z" fill="#0D8D0B"/>
<path d="M92 17L106.722 42.5H77.2776L92 17Z" fill="#0D8D0B"/>
</svg>
