<svg width="76" height="91" viewBox="0 0 76 91" fill="none" xmlns="http://www.w3.org/2000/svg">
<path d="M43.2697 23.1463V22.8584V2.56221L40.7075 0V20.5841L42.9818 22.8584L43.2697 23.1463Z" fill="#A6C9F2"/>
<path d="M35.6406 26.9464V26.6585V6.36234L33.1072 3.82892V24.413L35.3527 26.6585L35.6406 26.9464Z" fill="#A6C9F2"/>
<path d="M43.2697 67.8266V68.0857V88.3819L40.7075 90.9441V70.36L42.9818 68.0857L43.2697 67.8266Z" fill="#A6C9F2"/>
<path d="M35.6406 63.9977V64.2856V84.5817L33.1072 87.1152V66.5311L35.3527 64.2856L35.6406 63.9977Z" fill="#A6C9F2"/>
<path d="M8.89576 44.047L27.8964 25.0463V7.2836L0 35.18L8.89576 44.047Z" fill="#A6C9F2"/>
<path d="M76.3481 55.7353L67.4811 46.8683L48.4805 65.869V83.6317L76.3481 55.7353Z" fill="#A6C9F2"/>
<path d="M48.4805 25.0463L67.4811 44.047L76.3481 35.18L48.4805 7.2836V25.0463Z" fill="#A6C9F2"/>
<path d="M27.8964 65.869L8.89576 46.8683L0 55.7353L27.8964 83.6317V65.869Z" fill="#A6C9F2"/>
</svg>
