<svg width="90" height="90" viewBox="0 0 90 90" fill="none" xmlns="http://www.w3.org/2000/svg">
<path d="M42.0293 1.10744L5.4668 14.8184C2.17969 16.0488 0 19.2129 0 22.7285V62.2969C0 65.4961 1.81055 68.4141 4.6582 69.8379L41.2207 88.1192C43.5938 89.3145 46.3887 89.3145 48.7617 88.1192L85.3242 69.8379C88.1895 68.4141 89.9824 65.4785 89.9824 62.2969V22.7285C89.9824 19.2129 87.8027 16.0664 84.5156 14.836L47.9531 1.12502C46.0547 0.386739 43.9453 0.386739 42.0293 1.10744ZM45 12.0235L78.75 24.6797V24.8731L45 38.584L11.25 24.8731V24.6797L45 12.0235ZM50.625 74.6016V48.4278L78.75 37.002V60.5391L50.625 74.6016Z" fill="#A6C9F2"/>
</svg>
