<svg width="44" height="44" viewBox="0 0 44 44" fill="none" xmlns="http://www.w3.org/2000/svg">
<path d="M39.0625 0.125H4.6875C2.09961 0.125 0 2.22461 0 4.8125V39.1875C0 41.7754 2.09961 43.875 4.6875 43.875H39.0625C41.6504 43.875 43.75 41.7754 43.75 39.1875V4.8125C43.75 2.22461 41.6504 0.125 39.0625 0.125ZM34.2871 15.6328C34.3066 15.9062 34.3066 16.1895 34.3066 16.4629C34.3066 24.9297 27.8613 34.6855 16.084 34.6855C12.4512 34.6855 9.08203 33.6309 6.25 31.8145C6.76758 31.873 7.26563 31.8926 7.79297 31.8926C10.791 31.8926 13.5449 30.877 15.7422 29.1582C12.9297 29.0996 10.5664 27.2539 9.75586 24.7148C10.7422 24.8613 11.6309 24.8613 12.6465 24.5977C9.7168 24.002 7.51953 21.4238 7.51953 18.3086V18.2305C8.36914 18.709 9.36523 19.002 10.4102 19.041C9.53167 18.4567 8.81151 17.6639 8.31394 16.7335C7.81637 15.8032 7.55687 14.7641 7.55859 13.709C7.55859 12.5176 7.87109 11.4238 8.42773 10.4766C11.582 14.3633 16.3184 16.9023 21.6309 17.1758C20.7227 12.8301 23.9746 9.30469 27.8809 9.30469C29.7266 9.30469 31.3867 10.0762 32.5586 11.3262C34.0039 11.0527 35.3906 10.5156 36.6211 9.7832C36.1426 11.2676 35.1367 12.5176 33.8086 13.3086C35.0977 13.1719 36.3477 12.8105 37.5 12.3125C36.6309 13.5918 35.5371 14.7246 34.2871 15.6328Z" fill="#A6C9F2"/>
</svg>
